<?xml version="1.0" encoding="UTF-8"?>
<svg xmlns="http://www.w3.org/2000/svg" xmlns:xlink="http://www.w3.org/1999/xlink" width="438px" height="438px" viewBox="0 0 438 438" version="1.1">
<defs>
<linearGradient id="linear0" gradientUnits="userSpaceOnUse" x1="-1254.397" y1="877.268" x2="-1261.911" y2="899.466" gradientTransform="matrix(14.257813,0,0,14.257813,18083.46875,-12428.824875)">
<stop offset="0" style="stop-color:rgb(6.666667%,29.019608%,54.509804%);stop-opacity:1;"/>
<stop offset="1" style="stop-color:rgb(2.352941%,41.176471%,73.72549%);stop-opacity:1;"/>
</linearGradient>
<linearGradient id="linear1" gradientUnits="userSpaceOnUse" x1="-1252.05" y1="887.612" x2="-1253.788" y2="888.2" gradientTransform="matrix(14.257813,0,0,14.257813,18083.46875,-12428.824875)">
<stop offset="0" style="stop-color:rgb(0%,0%,0%);stop-opacity:0.301961;"/>
<stop offset="0.071" style="stop-color:rgb(0%,0%,0%);stop-opacity:0.2;"/>
<stop offset="0.321" style="stop-color:rgb(0%,0%,0%);stop-opacity:0.101961;"/>
<stop offset="0.623" style="stop-color:rgb(0%,0%,0%);stop-opacity:0.0509804;"/>
<stop offset="1" style="stop-color:rgb(0%,0%,0%);stop-opacity:0;"/>
</linearGradient>
<linearGradient id="linear2" gradientUnits="userSpaceOnUse" x1="-1252.952" y1="876.6" x2="-1244.704" y2="898.575" gradientTransform="matrix(14.257813,0,0,14.257813,18083.46875,-12428.824875)">
<stop offset="0" style="stop-color:rgb(23.529412%,79.607843%,95.686275%);stop-opacity:1;"/>
<stop offset="1" style="stop-color:rgb(15.686275%,57.254902%,87.45098%);stop-opacity:1;"/>
</linearGradient>
</defs>
<g id="surface1">
<path style=" stroke:none;fill-rule:nonzero;fill:url(#linear0);" d="M 160.910156 54.75 L 264.070312 54.75 L 156.976562 372.054688 C 154.722656 378.742188 148.453125 383.242188 141.390625 383.242188 L 61.109375 383.242188 C 52.039062 383.242188 44.683594 375.886719 44.683594 366.816406 C 44.683594 365.027344 44.976562 363.257812 45.542969 361.558594 L 145.324219 65.945312 C 147.578125 59.257812 153.847656 54.75 160.910156 54.75 Z M 160.910156 54.75 "/>
<path style=" stroke:none;fill-rule:nonzero;fill:rgb(0%,47.058824%,83.137255%);fill-opacity:1;" d="M 310.816406 267.582031 L 147.230469 267.582031 C 143.050781 267.574219 139.65625 270.96875 139.648438 275.144531 C 139.648438 277.253906 140.515625 279.261719 142.058594 280.695312 L 247.179688 378.804688 C 250.234375 381.664062 254.269531 383.25 258.457031 383.25 L 351.085938 383.25 Z M 310.816406 267.582031 "/>
<path style=" stroke:none;fill-rule:nonzero;fill:url(#linear1);" d="M 160.910156 54.75 C 153.765625 54.722656 147.441406 59.347656 145.289062 66.15625 L 45.671875 361.304688 C 42.613281 369.828125 47.046875 379.226562 55.570312 382.28125 C 57.359375 382.921875 59.25 383.25 61.15625 383.25 L 143.519531 383.25 C 149.757812 382.136719 154.925781 377.746094 157.03125 371.761719 L 176.898438 313.214844 L 247.851562 379.398438 C 250.828125 381.863281 254.558594 383.222656 258.421875 383.25 L 350.710938 383.25 L 310.230469 267.582031 L 192.238281 267.609375 L 264.441406 54.75 Z M 160.910156 54.75 "/>
<path style=" stroke:none;fill-rule:nonzero;fill:url(#linear2);" d="M 292.675781 65.929688 C 290.421875 59.25 284.160156 54.75 277.109375 54.75 L 162.132812 54.75 C 169.175781 54.75 175.445312 59.25 177.691406 65.917969 L 277.472656 361.558594 C 280.375 370.15625 275.757812 379.472656 267.160156 382.375 C 265.472656 382.957031 263.703125 383.25 261.914062 383.25 L 376.890625 383.25 C 385.960938 383.25 393.316406 375.894531 393.316406 366.816406 C 393.316406 365.027344 393.023438 363.257812 392.449219 361.570312 Z M 292.675781 65.929688 "/>
</g>
</svg>
