<?xml version="1.0" encoding="UTF-8"?>
<svg xmlns="http://www.w3.org/2000/svg" xmlns:xlink="http://www.w3.org/1999/xlink" width="438px" height="438px" viewBox="0 0 438 438" version="1.1">
<g id="surface1">
<path style=" stroke:none;fill-rule:nonzero;fill:rgb(94.117647%,31.764706%,20%);fill-opacity:1;" d="M 418.628906 200.523438 L 237.472656 19.375 C 227.042969 8.941406 210.121094 8.941406 199.683594 19.375 L 162.070312 57 L 209.785156 104.714844 C 220.875 100.964844 233.589844 103.480469 242.425781 112.320312 C 251.316406 121.21875 253.808594 134.042969 249.96875 145.171875 L 295.960938 191.164062 C 307.09375 187.324219 319.925781 189.808594 328.8125 198.707031 C 341.230469 211.125 341.230469 231.246094 328.8125 243.671875 C 316.386719 256.09375 296.265625 256.09375 283.832031 243.671875 C 274.496094 234.324219 272.183594 220.597656 276.917969 209.09375 L 234.023438 166.199219 L 234.023438 279.074219 C 237.046875 280.574219 239.90625 282.570312 242.425781 285.089844 C 254.84375 297.503906 254.84375 317.625 242.425781 330.058594 C 230.007812 342.472656 209.875 342.472656 197.464844 330.058594 C 185.046875 317.621094 185.046875 297.5 197.464844 285.089844 C 200.535156 282.023438 204.089844 279.703125 207.882812 278.148438 L 207.882812 164.222656 C 204.089844 162.667969 200.546875 160.371094 197.464844 157.28125 C 188.058594 147.882812 185.796875 134.074219 190.621094 122.523438 L 143.582031 75.476562 L 19.363281 199.683594 C 8.925781 210.128906 8.925781 227.046875 19.363281 237.480469 L 200.527344 418.632812 C 210.957031 429.070312 227.871094 429.070312 238.316406 418.632812 L 418.628906 238.320312 C 429.0625 227.886719 429.0625 210.957031 418.628906 200.523438 Z M 418.628906 200.523438 "/>
</g>
</svg>
