<?xml version="1.0" standalone="no"?>
<!DOCTYPE svg PUBLIC "-//W3C//DTD SVG 20010904//EN"
 "http://www.w3.org/TR/2001/REC-SVG-20010904/DTD/svg10.dtd">
<svg version="1.0" xmlns="http://www.w3.org/2000/svg"
 width="980.000000pt" height="980.000000pt" viewBox="0 0 980.000000 980.000000"
 preserveAspectRatio="xMidYMid meet">
<metadata>
Created by potrace 1.15, written by Peter Selinger 2001-2017
</metadata>
<g transform="translate(0.000000,980.000000) scale(0.100000,-0.100000)"
fill="#000000" stroke="none">
<path d="M4560 9789 c-1035 -75 -1998 -463 -2800 -1128 -150 -123 -501 -475
-622 -621 -881 -1068 -1270 -2403 -1098 -3765 119 -934 501 -1801 1124 -2545
98 -117 370 -393 496 -504 1328 -1166 3158 -1531 4825 -962 895 305 1700 879
2281 1627 735 946 1100 2126 1024 3314 -70 1094 -491 2109 -1216 2935 -112
128 -386 398 -509 501 -763 642 -1665 1026 -2665 1134 -174 19 -664 27 -840
14z m805 -1234 c596 -63 1119 -250 1600 -570 142 -95 301 -218 409 -317 l59
-54 -491 -475 c-271 -260 -497 -476 -503 -478 -6 -2 -30 14 -52 36 -176 166
-455 328 -715 413 -246 80 -508 117 -772 107 -395 -15 -745 -119 -1094 -326
-276 -163 -577 -462 -755 -748 -159 -257 -268 -543 -321 -843 -28 -156 -38
-494 -21 -651 69 -605 361 -1154 816 -1536 468 -393 1065 -578 1685 -523 550
50 993 248 1330 596 249 257 409 537 490 859 l28 110 -1041 5 -1042 5 -3 628
-2 627 1737 -2 1738 -3 17 -114 c75 -507 35 -1089 -112 -1618 -301 -1082
-1055 -1894 -2092 -2251 -228 -79 -475 -136 -743 -173 -190 -26 -672 -37 -863
-20 -748 68 -1429 347 -2022 829 -145 118 -396 372 -515 522 -445 557 -708
1185 -795 1900 -20 165 -24 561 -6 740 84 878 446 1650 1061 2265 600 601
1364 968 2205 1059 174 19 610 20 785 1z"/>
</g>
</svg>
