<?xml version="1.0" encoding="UTF-8"?>
<svg xmlns="http://www.w3.org/2000/svg" xmlns:xlink="http://www.w3.org/1999/xlink" width="438px" height="438px" viewBox="0 0 438 438" version="1.1">
<g id="surface1">
<path style=" stroke:none;fill-rule:nonzero;fill:rgb(0%,0%,0%);fill-opacity:1;" d="M 218.691406 30.855469 C 114.179688 30.855469 29.464844 115.589844 29.464844 220.078125 C 29.464844 324.582031 114.179688 409.289062 218.691406 409.289062 C 323.191406 409.289062 407.914062 324.582031 407.914062 220.078125 C 407.914062 115.589844 323.191406 30.855469 218.691406 30.855469 Z M 327.40625 260.335938 C 322.050781 278.789062 311.933594 295.960938 297.75 308.996094 C 284.332031 321.386719 267.523438 329.875 249.761719 333.960938 C 230.109375 338.433594 209.324219 338.554688 189.796875 333.316406 C 174.324219 329.199219 159.730469 321.824219 147.207031 311.839844 C 133.9375 301.292969 122.996094 287.835938 115.363281 272.703125 C 103.621094 249.515625 100.007812 222.371094 105.191406 196.910156 C 107.25 186.691406 110.679688 176.757812 115.375 167.449219 C 128.867188 140.441406 153.199219 119.070312 181.777344 109.285156 C 207.136719 100.507812 235.542969 100.707031 260.730469 109.976562 C 274.722656 115.113281 287.527344 123.238281 298.449219 133.347656 C 294.796875 137.316406 290.832031 141.011719 287.058594 144.875 C 279.867188 152.054688 272.695312 159.261719 265.492188 166.425781 C 258.363281 159.617188 249.660156 154.445312 240.21875 151.578125 C 229.113281 148.21875 217.152344 147.753906 205.804688 150.175781 C 192.558594 153.015625 180.261719 159.9375 170.800781 169.621094 C 163.132812 177.382812 157.296875 186.925781 153.789062 197.253906 C 148.734375 211.910156 148.773438 228.230469 153.765625 242.898438 C 158.652344 257.316406 168.164062 270.132812 180.628906 278.890625 C 188.425781 284.386719 197.363281 288.289062 206.726562 290.15625 C 215.933594 292.019531 225.46875 291.820312 234.699219 290.246094 C 243.867188 288.636719 252.761719 285.257812 260.503906 280.054688 C 272.820312 271.828125 281.503906 258.464844 283.972656 243.851562 C 262.683594 243.839844 241.390625 243.84375 220.097656 243.851562 C 220.070312 228.605469 220.09375 213.355469 220.089844 198.105469 C 256.855469 198.101562 293.621094 198.09375 330.390625 198.109375 C 334.054688 218.714844 333.25 240.207031 327.40625 260.335938 Z M 327.40625 260.335938 "/>
</g>
</svg>
