<?xml version="1.0" encoding="UTF-8"?>
<svg xmlns="http://www.w3.org/2000/svg" xmlns:xlink="http://www.w3.org/1999/xlink" width="438px" height="438px" viewBox="0 0 438 438" version="1.1">
<g id="surface1">
<path style=" stroke:none;fill-rule:nonzero;fill:rgb(0%,0%,0%);fill-opacity:1;" d="M 205.3125 14.003906 C 203.800781 14.164062 199.105469 14.722656 194.96875 15.199219 C 169.34375 18.144531 139.261719 28.328125 116.820312 41.777344 C 54.113281 79.339844 16.632812 145.230469 16.710938 217.566406 C 16.792969 271.839844 37.957031 322.929688 76.394531 361.285156 C 102.972656 387.867188 135.285156 406.167969 171.09375 414.921875 C 187.328125 418.820312 197.117188 420.175781 214.464844 420.730469 C 268.339844 422.402344 318.3125 403.78125 358.582031 367.015625 C 402.191406 327.226562 425.984375 270.089844 423.914062 210.484375 C 422.164062 161.703125 405.054688 118.8125 372.425781 81.566406 C 350.621094 56.660156 319.03125 35.652344 287.121094 24.75 C 265.234375 17.347656 247.964844 14.324219 224.410156 13.925781 C 215.417969 13.765625 206.824219 13.847656 205.3125 14.003906 Z M 213.90625 81.488281 C 213.988281 106.875 213.828125 127.882812 213.429688 128.28125 C 211.757812 129.953125 184.542969 125.257812 169.183594 120.5625 C 161.144531 118.09375 146.265625 112.285156 145.070312 111.089844 C 144.433594 110.535156 150.800781 94.9375 155.335938 85.625 C 166 64.21875 178.414062 48.859375 192.738281 39.390625 C 196.636719 36.84375 198.230469 36.367188 203.480469 35.808594 C 206.902344 35.492188 210.566406 35.253906 211.679688 35.332031 L 213.667969 35.414062 Z M 236.585938 35.808594 C 241.839844 36.445312 244.464844 37.164062 246.933594 38.753906 C 262.132812 48.222656 274.625 63.664062 286.085938 87.136719 C 291.097656 97.402344 296.828125 111.570312 296.828125 113.796875 C 296.828125 115.148438 277.488281 121.753906 265.472656 124.539062 C 257.039062 126.449219 245.578125 128.042969 235.710938 128.597656 L 226.796875 129.15625 L 226.796875 82.125 C 226.796875 37.800781 226.878906 35.015625 228.230469 35.015625 C 228.949219 35.015625 232.765625 35.414062 236.585938 35.808594 Z M 164.964844 48.703125 C 155.019531 61.035156 146.105469 76.792969 138.707031 95.097656 C 136.398438 100.746094 134.167969 105.363281 133.691406 105.203125 C 130.667969 104.488281 111.726562 91.277344 102.65625 83.636719 L 99.871094 81.328125 L 101.460938 79.5 C 106.554688 73.769531 128.359375 59.367188 141.648438 53 C 148.574219 49.738281 167.59375 42.335938 169.660156 42.257812 C 169.980469 42.175781 167.910156 45.121094 164.964844 48.703125 Z M 284.492188 46.710938 C 296.429688 51.167969 309.71875 58.09375 321.097656 65.652344 C 330.410156 71.859375 344.574219 83.160156 344.574219 84.351562 C 344.574219 86.742188 311.707031 109.023438 308.207031 109.023438 C 307.808594 109.023438 306.136719 105.363281 304.46875 100.824219 C 300.410156 89.84375 289.984375 68.753906 284.492188 60.480469 C 282.027344 56.738281 277.808594 51.089844 275.261719 47.90625 C 269.691406 41.0625 269.453125 41.140625 284.492188 46.710938 Z M 109.261719 105.363281 C 112.84375 107.910156 119.128906 111.96875 123.1875 114.433594 C 128.359375 117.457031 130.429688 119.128906 130.109375 120.003906 C 129.15625 122.550781 125.734375 137.035156 123.824219 146.824219 C 121.355469 159.316406 118.890625 178.652344 118.253906 190.589844 C 117.933594 195.363281 117.539062 201.96875 117.296875 205.074219 L 116.820312 210.882812 L 38.039062 210.882812 L 38.59375 204.277344 C 42.015625 162.339844 58.730469 123.824219 86.582031 93.742188 L 90.003906 90.003906 L 96.449219 95.335938 C 99.949219 98.28125 105.679688 102.734375 109.261719 105.363281 Z M 363.992188 105.441406 C 386.113281 133.375 399.007812 166.875 402.269531 204.675781 L 402.828125 210.882812 L 363.355469 210.882812 C 341.628906 210.882812 323.882812 210.804688 323.882812 210.644531 C 323.882812 210.566406 323.644531 206.746094 323.40625 202.128906 C 322.132812 177.460938 318.394531 150.003906 313.699219 131.464844 L 311.46875 122.390625 L 313.0625 121.355469 C 314.015625 120.800781 317.597656 118.890625 321.097656 117.058594 C 328.898438 112.921875 340.515625 105.203125 348.554688 98.757812 L 354.523438 93.980469 L 356.75 96.527344 C 357.945312 97.960938 361.207031 101.941406 363.992188 105.441406 Z M 149.449219 127.40625 C 165.285156 134.011719 185.816406 139.101562 204.359375 140.933594 L 214.066406 141.886719 L 214.066406 210.882812 L 127.882812 210.882812 L 128.441406 201.492188 C 129.472656 183.667969 130.667969 172.207031 132.894531 158.679688 C 135.523438 143.242188 139.980469 124.140625 140.933594 124.140625 C 141.332031 124.140625 145.152344 125.574219 149.449219 127.40625 Z M 303.433594 136.238281 C 308.128906 155.734375 311.230469 177.9375 312.425781 200.300781 L 312.980469 210.882812 L 226.796875 210.882812 L 226.957031 176.425781 L 227.195312 142.046875 L 236.347656 141.570312 C 254.808594 140.535156 275.660156 136.316406 292.054688 130.191406 C 296.191406 128.679688 300.011719 127.40625 300.410156 127.40625 C 300.886719 127.324219 302.238281 131.382812 303.433594 136.238281 Z M 117.296875 227.355469 C 117.539062 229.027344 117.777344 232.847656 117.777344 235.949219 C 117.777344 247.886719 120.324219 269.691406 123.824219 287.675781 C 125.65625 297.226562 129.078125 311.789062 130.109375 314.496094 C 130.429688 315.371094 128.359375 316.960938 123.1875 320.066406 C 113.875 325.636719 104.964844 332 96.449219 339.164062 L 89.765625 344.734375 L 85.707031 340.117188 C 61.433594 312.902344 46.074219 280.992188 40.585938 246.296875 C 39.789062 241.042969 38.914062 233.960938 38.59375 230.539062 L 38.039062 224.410156 L 116.742188 224.410156 Z M 214.066406 258.550781 L 214.066406 292.691406 L 207.9375 293.167969 C 187.726562 294.996094 166.398438 300.171875 148.175781 307.652344 C 144.59375 309.164062 141.332031 310.355469 140.933594 310.355469 C 140.058594 310.355469 135.679688 292.371094 133.292969 278.523438 C 131.066406 265.871094 129.316406 249.238281 128.441406 234.121094 L 127.960938 224.410156 L 214.066406 224.410156 Z M 312.742188 227.914062 C 312.742188 238.179688 309.558594 268.65625 307.171875 281.308594 C 304.863281 293.085938 301.441406 307.171875 300.808594 307.171875 C 300.488281 307.171875 296.75 305.898438 292.53125 304.386719 C 275.183594 298.101562 254.890625 293.964844 236.984375 293.085938 L 226.796875 292.609375 L 226.796875 224.410156 L 312.742188 224.410156 Z M 402.269531 230.140625 C 400.042969 254.96875 394.710938 275.101562 384.839844 295.632812 C 377.359375 311.074219 367.175781 326.828125 358.34375 336.457031 L 354.523438 340.675781 L 348.953125 336.140625 C 341.628906 330.171875 325.714844 319.667969 318.710938 316.164062 C 315.6875 314.574219 312.742188 313.0625 312.265625 312.664062 C 311.707031 312.1875 312.1875 309.164062 313.699219 303.035156 C 317.835938 286.5625 321.65625 261.414062 322.691406 243.90625 C 322.929688 239.53125 323.328125 233.324219 323.566406 230.140625 L 324.042969 224.410156 L 402.746094 224.410156 Z M 213.90625 352.136719 C 213.988281 377.441406 213.746094 398.527344 213.429688 398.847656 C 213.03125 399.246094 209.292969 399.246094 204.914062 398.769531 C 197.59375 398.050781 196.796875 397.734375 191.863281 394.46875 C 184.621094 389.617188 179.132812 384.523438 173.003906 376.882812 C 163.851562 365.503906 154.699219 349.429688 148.574219 333.832031 C 144.117188 322.371094 143.878906 323.726562 151.359375 320.460938 C 165.839844 314.335938 185.179688 309.003906 199.742188 307.253906 C 208.734375 306.136719 211.917969 305.820312 212.871094 305.980469 C 213.351562 306.058594 213.746094 322.214844 213.90625 352.136719 Z M 245.339844 306.773438 C 262.289062 308.765625 275.738281 311.949219 290.460938 317.597656 C 294.359375 319.109375 296.828125 320.460938 296.828125 321.179688 C 296.828125 323.566406 289.347656 341.3125 283.9375 351.738281 C 280.910156 357.625 276.058594 365.902344 273.113281 370.039062 C 266.589844 379.269531 256.082031 389.933594 249 394.550781 C 244.386719 397.496094 242.875 398.050781 237.0625 398.6875 C 233.402344 399.164062 229.582031 399.484375 228.628906 399.484375 L 226.796875 399.484375 L 226.796875 305.582031 L 231.015625 305.582031 C 233.246094 305.582031 239.769531 306.136719 245.339844 306.773438 Z M 315.050781 329.136719 C 323.007812 333.433594 333.355469 340.355469 340.4375 346.007812 L 345.371094 349.984375 L 340.992188 353.964844 C 326.191406 367.492188 302.796875 381.339844 282.503906 388.582031 C 269.53125 393.199219 269.769531 393.355469 276.21875 385.398438 C 286.640625 372.347656 297.542969 352.375 304.46875 333.59375 C 306.136719 329.136719 307.652344 325.476562 307.808594 325.476562 C 308.046875 325.476562 311.3125 327.148438 315.050781 329.136719 Z M 138.464844 338.605469 C 145.390625 356.351562 154.699219 372.984375 164.648438 385.320312 C 167.75 389.21875 170.058594 392.320312 169.820312 392.320312 C 169.582031 392.320312 165.445312 391.046875 160.589844 389.457031 C 149.289062 385.636719 130.746094 376.566406 120.164062 369.484375 C 113 364.707031 99.472656 354.441406 99.472656 353.804688 C 99.472656 353.25 111.332031 343.777344 116.902344 339.800781 C 125.335938 333.832031 134.011719 328.660156 134.566406 329.296875 C 134.804688 329.613281 136.558594 333.753906 138.464844 338.605469 Z M 138.464844 338.605469 "/>
</g>
</svg>
