<?xml version="1.0" encoding="utf-8"?>
<!-- Generator: Adobe Illustrator 24.2.3, SVG Export Plug-In . SVG Version: 6.00 Build 0)  -->
<svg version="1.1" id="Layer_1" xmlns="http://www.w3.org/2000/svg" xmlns:xlink="http://www.w3.org/1999/xlink" x="0px" y="0px"
	 viewBox="0 0 384 384" style="enable-background:new 0 0 384 384;" xml:space="preserve">
<style type="text/css">
	.st0{stroke:#000000;stroke-miterlimit:10;}
	.st1{fill:#FFFFFF;stroke:#000000;stroke-miterlimit:10;}
</style>
<path class="st0" d="M344.9,155.8c12.1-0.1,31.7-2.6,37,4.6c4.6,6.2,1.9,25.7,1.9,35.5c0,29,0,58.1,0,87.1c0,10.2,2.2,27.2-2.6,33.1
	c-5.1,6.2-25.3,3.7-36.2,3.6c0.2,26.1,0,44.5-14.2,55.7c-14.2,11.2-42.3,8.6-67.9,8.6c-48.2,0-96.3,0-144.5,0
	c-28.5,0-51.7,2.8-67.4-10.3c-12.8-10.7-12.4-30-12.2-54c-10.9,0.1-31.2,2.6-36.2-3.6C-2.3,310.3,0,292.8,0,283
	c0-29.1,0-58.2,0-87.4c0-8.5-1.9-30.5,1.7-35.3c5.3-7.1,24.8-4.7,37-4.6c0-28.6,0-57.3,0-85.9c0-12.4-1.9-28.1,0.7-39.1
	c2.1-9.1,7.1-17.1,13.4-22.1C57.5,5,63.3,2,70.1,0.5C101,0.3,131.8,0.2,162.7,0c37.5,0.1,75,0.2,112.6,0.2c6.2,1.8,11,9.3,15.1,13.4
	c13,13,26.1,26.1,39.1,39.1c4.7,4.7,13.9,10.5,15.4,18C344.9,99.1,344.9,127.4,344.9,155.8z"/>
<path class="st1" d="M61.4,155.8c86.9,0,173.8,0,260.6,0c0-23.8,0-47.7,0-71.5c-13.7,0.1-53.7,2.9-59-4.1
	c-5.3-6.9-2.5-44.8-2.4-57.6c-48.1,0-96.2,0-144.2,0c-16.7,0-43.7-3.6-51.4,6c-5.6,7-3.6,24.1-3.6,36.5
	C61.4,95.3,61.4,125.5,61.4,155.8z"/>
<path class="st1" d="M283.4,61.4c7.5-0.1,15-0.2,22.6-0.2c-0.1-0.1-0.2-0.2-0.2-0.2c-7.4-7.4-14.7-14.7-22.1-22.1
	C283.6,46.4,283.5,53.9,283.4,61.4z"/>
<path class="st1" d="M22.3,178.6c0,39.4,0,78.9,0,118.3c112.9,0,225.9,0,338.9,0c0-39.4,0-78.9,0-118.3
	C248.3,178.6,135.3,178.6,22.3,178.6z"/>
<path d="M108.5,204.7c3.9-0.1,7.9-0.1,10.3,1.2c0.1,5.6,0.2,11.2,0.2,16.8c0,12.5,2.2,29.2-0.7,40.3c-0.8,3-2.6,6.5-4.8,8.2
	c-8.3,6.4-27.5,5.2-22.3-10.6c0.2-0.2,0.3-0.3,0.5-0.5c3.2,0.4,7.2,3.8,10.8,1.4c5.2-3.5,1.1-45.5,2.6-55.7
	C106.2,205.5,107.4,205.1,108.5,204.7z"/>
<path d="M151,204.7c4.1,0,12-1.1,14.4,1c6.2,17.3,12.3,34.6,18.5,51.8c1.3,3.4,5.6,11.9,3.8,15.4c-2.6,1.9-11.2,1.2-13.9,0
	c-1.7-5-3.4-9.9-5-14.9c-3.9-0.1-24.9-0.5-25.7,1c-1.6,4.6-3.2,9.3-4.8,13.9c-2.8,1.3-9.4,1.5-12.5,0.2c-1.9-3.4,2.2-11.8,3.6-15.4
	c2.8-7.3,15.7-49.6,19-52.1C149.2,205.4,150.1,205,151,204.7z"/>
<path d="M187.7,204.7c3.8,0.2,7.5,0.5,11.3,0.7c5.8,18,11.7,36,17.5,54c4.2-13.4,8.5-26.9,12.7-40.3c1.4-4.6,2.1-10.4,4.8-13.9
	c3.3-0.6,9.7-1.2,12.2,0.5c1.3,5.4-3.4,13.4-5,17.8c-5.7,16.6-11.4,33.1-17,49.7c-3.6,0.9-14,2-17-0.2c-1.8-5.2-3.7-10.4-5.5-15.6
	c-2.8-8.3-17.7-45-16.3-51.6c0.2-0.2,0.3-0.3,0.5-0.5C186.4,205,187,204.9,187.7,204.7z"/>
<path d="M268.8,204.7c5.4-0.2,12.1-0.6,15.1,1.7c5.5,16,11,32,16.6,48c1.6,4.6,7.1,13.6,5.3,18.7c-3.5,1.3-11.4,1.2-14.2-0.5
	c-1.6-4.9-3.2-9.8-4.8-14.6c-8.6,0.1-17.1,0.2-25.7,0.2c-0.7,3.8-2.7,12.4-5.3,14.6c-2.6,1.9-10.7,1.3-12.7-0.5
	c0.2-6.9,4.1-13.7,6.2-19.4c5.6-15.8,11.2-31.7,16.8-47.5C267,205.2,267.9,205,268.8,204.7z"/>
<path class="st1" d="M155.8,218.6c-3.1,9.4-6.2,18.9-9.4,28.3c6.3,0,12.6,0,19,0c-0.1-0.3-0.2-0.6-0.2-1
	C162,236.9,158.9,227.8,155.8,218.6z"/>
<path class="st1" d="M273.8,218.6c-3.1,9.4-6.2,18.9-9.4,28.3c6.3,0,12.6,0,19,0c-0.1-0.3-0.2-0.6-0.2-1
	C280.1,236.9,277,227.8,273.8,218.6z"/>
<path class="st1" d="M61.4,319.7c-0.1,15.3-2.2,32.7,7,38.9c8.5,5.7,39.3,2.9,53.5,2.9c45.7,0,91.4,0,137,0
	c15.3,0,48.6,3.1,57.1-3.6c8.1-6.4,6.1-23.7,6-38.2C235.2,319.7,148.3,319.7,61.4,319.7z"/>
</svg>
