<?xml version="1.0" encoding="utf-8"?>
<!-- Generator: Adobe Illustrator 24.2.3, SVG Export Plug-In . SVG Version: 6.00 Build 0)  -->
<svg version="1.1" id="Layer_1" xmlns="http://www.w3.org/2000/svg" xmlns:xlink="http://www.w3.org/1999/xlink" x="0px" y="0px"
	 viewBox="0 0 384 384" style="enable-background:new 0 0 384 384;" xml:space="preserve">
<style type="text/css">
	.st0{fill-rule:evenodd;clip-rule:evenodd;}
	.st1{fill-rule:evenodd;clip-rule:evenodd;fill:#FFFFFF;}
</style>
<path class="st0" d="M344.9,155.8c12.1-0.1,31.7-2.6,37,4.6c4.6,6.2,1.9,25.7,1.9,35.5c0,29,0,58.1,0,87.1c0,10.2,2.2,27.2-2.6,33.1
	c-5.1,6.2-25.3,3.7-36.2,3.6c0.2,26.1,0,44.5-14.2,55.7c-14.2,11.2-42.3,8.6-67.9,8.6c-48.2,0-96.3,0-144.5,0
	c-28.5,0-51.7,2.8-67.4-10.3c-12.8-10.7-12.4-30-12.2-54c-10.9,0.1-31.2,2.6-36.2-3.6C-2.3,310.3,0,292.8,0,283
	c0-29.1,0-58.2,0-87.4c0-8.5-1.9-30.5,1.7-35.3c5.3-7.1,24.8-4.7,37-4.6c0-28.6,0-57.3,0-85.9c0-12.4-1.9-28.1,0.7-39.1
	c2.1-9.1,7.1-17.1,13.4-22.1C57.5,5,63.3,2,70.1,0.5C101,0.3,131.8,0.2,162.7,0c37.5,0.1,75,0.2,112.6,0.2c6.2,1.8,11,9.3,15.1,13.4
	c13,13,26.1,26.1,39.1,39.1c4.7,4.7,13.9,10.5,15.4,18C344.9,99.1,344.9,127.4,344.9,155.8z"/>
<path class="st1" d="M61.4,155.8c86.9,0,173.8,0,260.6,0c0-23.8,0-47.7,0-71.5c-13.7,0.1-53.7,2.9-59-4.1
	c-5.3-6.9-2.5-44.8-2.4-57.6c-48.1,0-96.2,0-144.2,0c-16.7,0-43.7-3.6-51.4,6c-5.6,7-3.6,24.1-3.6,36.5
	C61.4,95.3,61.4,125.5,61.4,155.8z"/>
<path class="st1" d="M283.4,61.4c7.5-0.1,15-0.2,22.6-0.2c-0.1-0.1-0.2-0.2-0.2-0.2c-7.4-7.4-14.7-14.7-22.1-22.1
	C283.6,46.4,283.5,53.9,283.4,61.4z"/>
<path class="st1" d="M22.3,178.6c0,39.4,0,78.9,0,118.3c112.9,0,225.9,0,338.9,0c0-39.4,0-78.9,0-118.3
	C248.3,178.6,135.3,178.6,22.3,178.6z"/>
<path class="st0" d="M144.2,203.8c11.5-0.5,21.8,1.9,18.5,15.1c-0.4,0.2-0.8,0.5-1.2,0.7c-5.6-1.8-18.3-9.5-22.8-0.7
	c-0.7,1.4-1.1,4.5-0.2,6.2c5.6,11.2,25.6,5.3,28.6,25.9c0.8,5.8-1.2,11.2-3.6,14.6c-9.2,12.8-51.1,12.5-39.8-7.9
	c7,0.5,24.9,12.9,28.8-0.7c3-10.5-15.5-13.7-20.9-17.5c-9.1-6.5-10.7-24-1-31.2C134.4,205.5,138.8,205.4,144.2,203.8z"/>
<path class="st0" d="M204.7,203.8c11.4-0.2,19.4,2.1,25.4,7.2c14,11.8,10.6,47-2.2,57.1c-5.2,4.1-11.4,5.6-19.7,6.7
	c-27.3,3.6-40.2-22.5-32.4-48.7C180.7,209.9,188.3,208.5,204.7,203.8z"/>
<path class="st0" d="M101.5,204.7c3.9-0.1,7.9-0.1,10.3,1.2c2.5,13.5,1.1,58.7-4.6,64.3c-3.6,3.6-18.4,7.4-22.8,1.4
	c-1.6-2.1-1.3-8.6-0.2-11c0.2-0.2,0.3-0.3,0.5-0.5c3.2,0.5,6.5,3.5,10.3,1.7c8.1-3.9-1.6-46.4,3.4-55.9
	C99.4,205.5,100.5,205.1,101.5,204.7z"/>
<path class="st0" d="M299.3,204.7c2.6,0,6.7-0.2,7.7,1.4c0.1,5.2,0.2,10.4,0.2,15.6c0,11.2,2.7,44.3-1.7,50.9
	c-3.6,1.3-12.4,1.8-15.4-0.5c-3.8-2.9-25.4-44.4-26.9-50.9c-0.1,0-0.2,0-0.2,0c-0.1,17.1-0.2,34.2-0.2,51.4c-1.7,1.4-10.4,2.3-12,0
	c-0.1-5.3-0.2-10.6-0.2-15.8c0-10.6-2.2-43.9,1.2-50.4c3.4-2,14.1-2.4,17.5,0c3.2,2.2,4.5,7.6,6.5,11c6.3,12.1,12.6,24.2,19,36.2
	c0-15.9,0-31.8,0-47.8C296.2,205.5,297.8,205.1,299.3,204.7z"/>
<path class="st1" d="M204,215.5c-4.2,1.5-7.6,2.4-10.1,5.5c-9.9,12.6-6.7,45.2,14.9,42C230.1,259.9,232.6,214.8,204,215.5z"/>
<path class="st1" d="M61.4,319.7c-0.1,15.3-2.2,32.7,7,38.9c8.5,5.7,39.3,2.9,53.5,2.9c45.7,0,91.4,0,137,0
	c15.3,0,48.6,3.1,57.1-3.6c8.1-6.4,6.1-23.7,6-38.2C235.2,319.7,148.3,319.7,61.4,319.7z"/>
</svg>
