<?xml version="1.0" encoding="UTF-8"?>
<svg xmlns="http://www.w3.org/2000/svg" xmlns:xlink="http://www.w3.org/1999/xlink" width="438px" height="438px" viewBox="0 0 438 438" version="1.1">
<g id="surface1">
<path style=" stroke:none;fill-rule:nonzero;fill:rgb(0%,0%,0%);fill-opacity:1;" d="M 185.117188 9.871094 C 110.398438 22.214844 45.550781 74.945312 20.417969 143.605469 C 9.871094 172.777344 8.078125 183.996094 8.078125 219.898438 C 8.078125 261.632812 11.890625 278.6875 29.171875 313.464844 C 43.53125 342.410156 62.378906 366.421875 85.941406 384.820312 C 191.847656 468.742188 348.246094 435.082031 407.933594 315.261719 C 425.433594 280.03125 432.164062 247.273438 430.148438 208.003906 C 427.230469 154.601562 408.15625 110.621094 371.582031 72.027344 C 325.132812 23.335938 251.535156 -1.121094 185.117188 9.871094 Z M 98.730469 169.410156 C 98.730469 173.449219 97.609375 175.019531 94.464844 175.019531 C 85.714844 175.019531 83.023438 181.078125 83.023438 199.476562 C 83.023438 209.800781 81.902344 217.878906 80.328125 219.449219 C 78.308594 221.46875 78.308594 222.816406 80.328125 224.835938 C 81.902344 226.40625 83.023438 234.257812 83.023438 244.578125 C 83.023438 262.753906 85.042969 267.019531 93.570312 267.019531 C 97.609375 267.019531 98.730469 268.363281 98.730469 272.628906 C 98.730469 277.566406 97.832031 278.238281 91.324219 278.238281 C 76.289062 278.238281 69.558594 267.242188 69.558594 242.113281 C 69.558594 233.585938 68.4375 228.425781 66.195312 226.628906 C 61.929688 223.261719 61.929688 218.550781 65.96875 216.082031 C 67.765625 214.960938 69.335938 207.78125 70.234375 195.664062 C 71.804688 172.328125 77.636719 164.472656 93.792969 164.027344 C 97.609375 163.800781 98.730469 165.148438 98.730469 169.410156 Z M 361.035156 171.65625 C 366.195312 176.589844 366.871094 179.507812 367.765625 195.886719 C 368.214844 208.453125 369.339844 214.738281 371.582031 216.082031 C 375.621094 218.328125 375.621094 225.730469 371.582031 227.300781 C 369.339844 228.199219 368.214844 234.035156 367.765625 247.945312 C 366.871094 266.121094 366.421875 267.691406 360.585938 272.851562 C 356.546875 276.21875 351.386719 278.238281 346.449219 278.238281 C 339.71875 278.238281 338.820312 277.566406 338.820312 272.628906 C 338.820312 267.914062 339.945312 267.019531 345.554688 267.019531 C 353.183594 267.019531 353.855469 265.449219 355.425781 241.214844 C 356.996094 221.46875 356.996094 222.816406 354.976562 198.582031 L 353.40625 178.386719 L 346.226562 176.140625 C 340.390625 174.570312 338.820312 172.777344 338.820312 168.738281 C 338.820312 163.578125 339.496094 163.351562 347.125 164.472656 C 351.613281 165.371094 357.894531 168.511719 361.035156 171.65625 Z M 302.472656 178.160156 C 304.265625 186.914062 290.804688 192.296875 284.96875 185.117188 C 281.378906 180.855469 283.847656 171.207031 289.007812 169.859375 C 293.945312 168.738281 301.574219 173.449219 302.472656 178.160156 Z M 185.34375 202.84375 C 190.277344 208.453125 190.726562 210.921875 190.726562 234.707031 L 190.726562 260.285156 L 183.097656 260.285156 C 178.835938 260.285156 175.019531 259.164062 174.570312 257.820312 C 173.898438 255.800781 172.550781 255.800781 168.960938 257.820312 C 166.269531 259.164062 159.988281 260.285156 154.824219 260.285156 C 147.421875 260.285156 144.054688 258.941406 138.894531 253.78125 C 130.144531 244.804688 130.144531 235.378906 138.894531 226.40625 C 146.523438 219 158.414062 217.652344 168.960938 223.039062 C 174.570312 226.179688 175.019531 226.179688 175.019531 221.691406 C 175.019531 210.023438 161.332031 205.089844 148.09375 212.042969 C 142.035156 215.183594 141.363281 215.183594 139.117188 211.148438 C 135.753906 204.414062 136.203125 203.070312 144.28125 199.03125 C 149.214844 196.335938 155.722656 195.441406 165.820312 195.886719 C 178.160156 196.5625 180.855469 197.460938 185.34375 202.84375 Z M 224.386719 198.804688 C 224.386719 202.171875 224.835938 202.171875 229.996094 198.804688 C 236.949219 194.316406 249.515625 194.09375 258.265625 198.804688 C 275.320312 207.554688 276.21875 245.476562 259.613281 256.472656 C 252.210938 261.183594 236.054688 261.410156 229.546875 256.921875 C 224.609375 253.554688 224.609375 253.554688 223.9375 268.589844 L 223.261719 283.847656 L 216.082031 284.519531 C 210.472656 284.96875 208.679688 284.296875 208.679688 281.828125 C 208.679688 279.808594 208.453125 262.082031 208.453125 242.335938 C 208.453125 222.589844 208.679688 203.964844 208.679688 200.824219 C 208.679688 195.886719 209.574219 195.214844 216.53125 195.214844 C 222.367188 195.214844 224.386719 196.113281 224.386719 198.804688 Z M 300.675781 227.75 L 300.675781 260.285156 L 284.96875 260.285156 L 284.96875 195.214844 L 300.675781 195.214844 Z M 300.675781 227.75 "/>
<path style=" stroke:none;fill-rule:nonzero;fill:rgb(0%,0%,0%);fill-opacity:1;" d="M 153.03125 233.808594 C 149.214844 237.625 149.664062 246.152344 153.929688 247.722656 C 164.25 251.761719 175.019531 247.722656 175.019531 239.644531 C 175.019531 232.238281 158.863281 227.976562 153.03125 233.808594 Z M 153.03125 233.808594 "/>
<path style=" stroke:none;fill-rule:nonzero;fill:rgb(0%,0%,0%);fill-opacity:1;" d="M 230.667969 212.269531 C 225.058594 215.183594 224.386719 216.757812 224.386719 227.527344 C 224.386719 240.316406 226.40625 243.234375 235.605469 245.703125 C 239.644531 246.597656 243.234375 245.703125 247.496094 242.335938 C 252.433594 238.523438 253.554688 235.605469 253.554688 227.976562 C 253.554688 213.390625 242.558594 205.761719 230.667969 212.269531 Z M 230.667969 212.269531 "/>
</g>
</svg>
